<!-- Generated by IcoMoon.io -->
<svg version="1.1" xmlns="http://www.w3.org/2000/svg" width="26" height="32" viewBox="0 0 26 32">
<title>menu</title>
<path d="M20.096 8.32h-14.336c-0.154 0-0.256-0.102-0.256-0.256s0.102-0.256 0.256-0.256h14.336c0.154 0 0.256 0.102 0.256 0.256 0 0.128-0.128 0.256-0.256 0.256z"></path>
<path d="M15.514 10.726h-9.754c-0.154 0-0.256-0.102-0.256-0.256s0.102-0.256 0.256-0.256h9.754c0.154 0 0.256 0.102 0.256 0.256s-0.128 0.256-0.256 0.256z"></path>
<path d="M10.624 13.133h-4.864c-0.154 0-0.256-0.102-0.256-0.256s0.102-0.256 0.256-0.256h4.864c0.154 0 0.256 0.102 0.256 0.256s-0.102 0.256-0.256 0.256z"></path>
<path d="M14.541 15.514h-8.781c-0.154 0-0.256-0.102-0.256-0.256s0.102-0.256 0.256-0.256h8.781c0.154 0 0.256 0.102 0.256 0.256s-0.102 0.256-0.256 0.256z"></path>
<path d="M12.928 17.92h-7.168c-0.154 0-0.256-0.102-0.256-0.256s0.102-0.256 0.256-0.256h7.168c0.154 0 0.256 0.102 0.256 0.256s-0.128 0.256-0.256 0.256z"></path>
</svg>
