<!-- Generated by IcoMoon.io -->
<svg version="1.1" xmlns="http://www.w3.org/2000/svg" width="26" height="32" viewBox="0 0 26 32">
<title>sort</title>
<path d="M9.458 18.258l-2.058 2.059v-15.517c0-0.11-0.090-0.2-0.2-0.2s-0.2 0.090-0.2 0.2v15.517l-2.058-2.058c-0.078-0.078-0.205-0.078-0.283 0s-0.078 0.205 0 0.283l2.4 2.4c0.018 0.019 0.041 0.034 0.065 0.044s0.050 0.015 0.076 0.015 0.052-0.006 0.076-0.015c0.025-0.010 0.047-0.025 0.065-0.044l2.4-2.4c0.078-0.078 0.078-0.205 0-0.283s-0.205-0.078-0.283-0z"></path>
<path d="M16 15h-4c-0.11 0-0.2 0.090-0.2 0.2s0.090 0.2 0.2 0.2h4c0.11 0 0.2-0.090 0.2-0.2s-0.090-0.2-0.2-0.2z"></path>
<path d="M17.6 11h-5.6c-0.11 0-0.2 0.090-0.2 0.2s0.090 0.2 0.2 0.2h5.6c0.11 0 0.2-0.090 0.2-0.2s-0.090-0.2-0.2-0.2z"></path>
<path d="M20 7h-8c-0.11 0-0.2 0.090-0.2 0.2s0.090 0.2 0.2 0.2h8c0.11 0 0.2-0.090 0.2-0.2s-0.090-0.2-0.2-0.2z"></path>
</svg>
