<svg aria-hidden="true" style="position: absolute; width: 0; height: 0; overflow: hidden;" version="1.1" xmlns="http://www.w3.org/2000/svg" xmlns:xlink="http://www.w3.org/1999/xlink">
<defs>
<symbol id="icon-sort" viewBox="0 0 26 32">
<title>sort</title>
<path d="M9.458 18.258l-2.058 2.059v-15.517c0-0.11-0.090-0.2-0.2-0.2s-0.2 0.090-0.2 0.2v15.517l-2.058-2.058c-0.078-0.078-0.205-0.078-0.283 0s-0.078 0.205 0 0.283l2.4 2.4c0.018 0.019 0.041 0.034 0.065 0.044s0.050 0.015 0.076 0.015 0.052-0.006 0.076-0.015c0.025-0.010 0.047-0.025 0.065-0.044l2.4-2.4c0.078-0.078 0.078-0.205 0-0.283s-0.205-0.078-0.283-0z"></path>
<path d="M16 15h-4c-0.11 0-0.2 0.090-0.2 0.2s0.090 0.2 0.2 0.2h4c0.11 0 0.2-0.090 0.2-0.2s-0.090-0.2-0.2-0.2z"></path>
<path d="M17.6 11h-5.6c-0.11 0-0.2 0.090-0.2 0.2s0.090 0.2 0.2 0.2h5.6c0.11 0 0.2-0.090 0.2-0.2s-0.090-0.2-0.2-0.2z"></path>
<path d="M20 7h-8c-0.11 0-0.2 0.090-0.2 0.2s0.090 0.2 0.2 0.2h8c0.11 0 0.2-0.090 0.2-0.2s-0.090-0.2-0.2-0.2z"></path>
</symbol>
<symbol id="icon-menu" viewBox="0 0 26 32">
<title>menu</title>
<path d="M20.096 8.32h-14.336c-0.154 0-0.256-0.102-0.256-0.256s0.102-0.256 0.256-0.256h14.336c0.154 0 0.256 0.102 0.256 0.256 0 0.128-0.128 0.256-0.256 0.256z"></path>
<path d="M15.514 10.726h-9.754c-0.154 0-0.256-0.102-0.256-0.256s0.102-0.256 0.256-0.256h9.754c0.154 0 0.256 0.102 0.256 0.256s-0.128 0.256-0.256 0.256z"></path>
<path d="M10.624 13.133h-4.864c-0.154 0-0.256-0.102-0.256-0.256s0.102-0.256 0.256-0.256h4.864c0.154 0 0.256 0.102 0.256 0.256s-0.102 0.256-0.256 0.256z"></path>
<path d="M14.541 15.514h-8.781c-0.154 0-0.256-0.102-0.256-0.256s0.102-0.256 0.256-0.256h8.781c0.154 0 0.256 0.102 0.256 0.256s-0.102 0.256-0.256 0.256z"></path>
<path d="M12.928 17.92h-7.168c-0.154 0-0.256-0.102-0.256-0.256s0.102-0.256 0.256-0.256h7.168c0.154 0 0.256 0.102 0.256 0.256s-0.128 0.256-0.256 0.256z"></path>
</symbol>
</defs>
</svg>
